<?xml version="1.0" encoding="UTF-8"?>
<!DOCTYPE svg PUBLIC "-//W3C//DTD SVG 1.1//EN" "http://www.w3.org/Graphics/SVG/1.1/DTD/svg11.dtd">
<svg version="1.1" xmlns="http://www.w3.org/2000/svg" xmlns:xlink="http://www.w3.org/1999/xlink" x="0px" y="0px" width="128" height="128" viewBox="0, 0, 128, 128">
  <g id="Background">
    <rect x="0" y="0" width="128" height="128" fill="#000000" fill-opacity="0"/>
  </g>
  <g id="Background">
    <path d="M18.093,6 L109.907,6 C116.561,6 122,11.439 122,18.093 L122,109.907 C122,116.561 116.561,122 109.907,122 L18.093,122 C11.439,122 6,116.561 6,109.907 L6,18.093 C6,11.439 11.439,6 18.093,6" fill="#727272"/>
    <path d="M15.741,33.469 C15.138,31.141 14.964,28.884 15.238,26.748 C15.527,24.546 16.198,22.569 17.262,20.861 C18.335,19.143 19.778,17.777 21.541,16.774 C23.303,15.796 25.295,15.266 27.505,15.203 C30.012,15.129 32.314,15.43 34.388,16.092 C36.379,16.728 38.097,17.705 39.54,18.969 C40.919,20.179 42.015,21.683 42.836,23.423 C43.618,25.085 44.106,26.98 44.307,29.09 C44.444,30.547 44.353,32.028 44.051,33.534 C43.755,34.995 43.267,36.315 42.6,37.494 C41.417,39.626 40.27,41.714 39.142,43.732 C38.042,45.714 36.954,47.641 35.894,49.523 C37.686,49.034 39.426,48.559 41.114,48.094 C42.769,47.641 44.385,47.19 45.965,46.755 C46.147,48.656 46.326,50.446 46.49,52.154 C43.499,53.09 40.384,54.071 37.123,55.094 C33.703,56.168 30.114,57.296 26.345,58.484 C25.693,56.995 25.003,55.432 24.281,53.789 C25.715,50.939 27.209,47.969 28.747,44.905 C30.346,41.726 31.995,38.388 33.713,34.936 C33.89,34.58 34.059,34.045 34.182,33.36 C34.31,32.657 34.301,31.958 34.154,31.274 C33.661,28.986 32.498,27.889 30.656,28.104 C29.885,28.195 29.319,28.688 28.962,29.583 C28.615,30.46 28.575,31.931 28.849,33.932 C26.853,33.867 24.779,33.798 22.651,33.73 C20.431,33.661 18.125,33.561 15.741,33.469" fill="#EBECEC"/>
    <path d="M67.826,51.696 C68.996,52.281 70.014,52.962 70.846,53.752 C71.695,54.551 72.379,55.372 72.877,56.199 C73.385,57.035 73.75,57.884 73.97,58.711 C74.189,59.552 74.308,60.323 74.308,61.023 C74.308,62.877 73.892,64.507 73.093,65.887 C72.302,67.243 71.152,68.279 69.668,68.978 C68.224,69.663 66.439,69.997 64.371,69.992 C62.37,69.987 60.122,69.603 57.665,68.886 C56.117,68.434 54.633,67.854 53.194,67.156 C51.797,66.479 50.509,65.621 49.358,64.612 C48.226,63.625 47.257,62.452 46.445,61.118 C45.645,59.808 45.092,58.272 44.787,56.515 C46.244,56.624 47.745,56.744 49.276,56.861 C50.852,56.985 52.482,57.112 54.153,57.241 C54.369,58.451 54.76,59.31 55.327,59.798 C55.893,60.291 56.57,60.634 57.319,60.804 C58.2,61 58.972,60.926 59.639,60.58 C60.311,60.224 60.657,59.415 60.657,58.155 C60.657,56.921 60.269,55.898 59.519,55.086 C58.77,54.282 57.725,53.761 56.41,53.537 C55.263,53.346 54.13,53.144 53.02,52.957 C53.02,50.747 53.017,48.537 53.017,46.326 C54.158,46.453 55.332,46.59 56.515,46.727 C57.844,46.879 58.84,46.66 59.482,46.057 C60.132,45.45 60.46,44.678 60.46,43.768 C60.46,42.786 60.199,42.055 59.684,41.581 C59.178,41.111 58.487,40.85 57.643,40.795 C57.378,40.782 57.1,40.795 56.821,40.84 C56.537,40.887 56.254,41.014 55.975,41.216 C55.701,41.412 55.437,41.723 55.203,42.142 C54.971,42.558 54.757,43.11 54.573,43.795 C52.888,43.362 51.25,42.938 49.66,42.525 C48.106,42.129 46.6,41.731 45.124,41.348 C45.403,39.983 45.915,38.768 46.668,37.694 C47.436,36.613 48.372,35.694 49.495,34.963 C50.637,34.214 51.962,33.626 53.483,33.228 C55.034,32.817 56.729,32.603 58.566,32.603 C61.058,32.603 63.265,32.909 65.15,33.506 C67.092,34.128 68.735,34.985 70.037,36.06 C71.371,37.16 72.367,38.448 73.014,39.899 C73.668,41.37 74.01,42.886 74.01,44.435 C74.01,45.019 73.883,45.669 73.641,46.381 C73.399,47.088 73.014,47.787 72.518,48.459 C72.02,49.125 71.376,49.732 70.599,50.281 C69.837,50.815 68.932,51.198 67.896,51.437 C67.868,51.524 67.846,51.611 67.826,51.696" fill="#EBECEC"/>
    <path d="M91.315,102.399 C91.616,103.139 91.94,103.714 92.278,104.125 C92.621,104.536 92.958,104.842 93.287,105.033 C93.62,105.225 93.954,105.354 94.297,105.404 C94.64,105.454 94.954,105.464 95.247,105.454 C95.955,105.422 96.52,105.253 96.913,104.951 C97.311,104.65 97.598,104.239 97.759,103.736 C97.919,103.226 98.001,102.636 97.996,101.996 C97.991,101.339 97.936,100.667 97.837,99.992 C97.603,98.417 97.142,97.179 96.48,96.321 C95.803,95.442 94.722,95.106 93.269,95.27 C92.858,95.315 92.356,95.544 91.785,95.94 C91.233,96.329 90.775,97.065 90.446,98.123 C88.547,98.312 86.692,98.494 84.907,98.663 C83.158,98.827 81.46,98.992 79.807,99.151 C78.51,95.525 77.098,91.571 75.558,87.24 C73.873,82.5 72.006,77.248 69.942,71.421 C75.362,69.586 81.3,67.567 87.825,65.352 C95.019,62.913 103.019,60.187 111.953,57.154 C111.839,63.567 111.737,69.357 111.652,74.617 C106.965,75.727 102.549,76.773 98.389,77.746 C94.466,78.664 90.74,79.528 87.213,80.34 C87.648,82.373 88.067,84.318 88.474,86.195 C89.333,85.669 90.274,85.196 91.297,84.783 C92.347,84.364 93.356,84.054 94.315,83.867 C97.777,83.19 100.809,83.063 103.28,83.569 C105.797,84.039 107.842,85.007 109.362,86.396 C110.866,87.766 111.898,89.483 112.432,91.497 C112.957,93.443 113.231,95.497 113.268,97.613 C113.168,100.271 112.683,102.539 111.861,104.468 C111.085,106.285 109.967,107.779 108.55,108.971 C107.199,110.108 105.513,110.957 103.527,111.523 C101.627,112.063 99.39,112.327 96.846,112.327 C95.402,112.327 93.922,112.222 92.397,112.016 C90.899,111.811 89.465,111.441 88.099,110.911 C86.734,110.386 85.455,109.646 84.263,108.687 C83.043,107.709 81.99,106.417 81.084,104.777 C82.647,104.421 84.263,104.043 85.935,103.654 C87.661,103.258 89.456,102.837 91.315,102.399" fill="#EBECEC"/>
    <path d="M79.837,31.757 C80.317,29.653 81.218,27.744 82.515,26.026 C83.788,24.341 85.305,22.915 87.049,21.755 C88.748,20.632 90.611,19.793 92.612,19.221 C94.553,18.678 96.552,18.422 98.586,18.459 C100.878,18.499 102.878,18.77 104.618,19.23 C106.298,19.678 107.697,20.331 108.824,21.167 C109.93,21.979 110.771,22.997 111.341,24.199 C111.902,25.386 112.177,26.775 112.167,28.391 C112.158,29.546 111.902,30.761 111.418,32.031 C110.93,33.315 110.236,34.507 109.34,35.607 C107.664,37.694 105.942,39.864 104.152,42.107 C102.298,44.427 100.371,46.837 98.367,49.34 C100.919,48.619 103.343,47.924 105.655,47.272 C107.851,46.65 109.957,46.047 111.971,45.477 C111.953,47.8 111.931,50.13 111.916,52.445 C107.751,53.958 103.189,55.606 98.165,57.433 C92.584,59.455 86.364,61.717 79.391,64.251 C79.391,61.607 79.391,58.957 79.391,56.3 C83.364,51.838 87.1,47.636 90.607,43.705 C93.904,40.001 97.033,36.493 99.983,33.187 C100.279,32.857 100.59,32.384 100.896,31.776 C101.207,31.164 101.366,30.561 101.366,29.985 C101.371,28.104 100.435,27.231 98.476,27.363 C97.65,27.418 96.913,27.811 96.283,28.515 C95.639,29.237 95.146,30.479 94.817,32.242 C92.584,32.172 90.247,32.1 87.82,32.023 C85.281,31.945 82.62,31.849 79.837,31.757" fill="#EBECEC"/>
    <path d="M56.278,29.927 C55.004,29.77 53.797,29.464 52.684,28.999 C51.532,28.523 50.486,27.916 49.523,27.181 C48.545,26.432 47.636,25.533 46.856,24.491 C46.033,23.405 45.353,22.171 44.818,20.796 C44.265,19.363 43.956,17.988 43.946,16.664 C43.932,15.29 44.235,14.07 44.86,13.047 C45.527,11.992 46.527,11.188 47.855,10.65 C49.231,10.12 50.906,9.968 52.856,10.224 C55.514,10.585 58.163,10.941 60.804,11.297 C63.438,11.649 66.064,12.009 68.685,12.362 C70.644,12.627 72.325,13.219 73.713,14.115 C75.052,14.992 76.093,16.061 76.824,17.304 C77.517,18.476 77.902,19.773 77.984,21.135 C78.062,22.422 77.87,23.701 77.44,24.966 C77.029,26.173 76.436,27.214 75.7,28.104 C74.997,28.958 74.171,29.629 73.243,30.141 C72.334,30.634 71.334,30.977 70.248,31.164 C69.165,31.351 67.987,31.369 66.694,31.214 C64.959,31.004 63.223,30.789 61.493,30.579 C59.758,30.365 58.018,30.141 56.278,29.927 z M67.059,25.387 C68.124,25.519 68.896,25.456 69.379,25.217 C69.872,24.971 70.179,24.587 70.266,24.053 C70.353,23.51 70.198,23.034 69.777,22.651 C69.352,22.267 68.567,21.989 67.416,21.842 C65.319,21.578 63.206,21.304 61.095,21.035 C58.989,20.764 56.861,20.495 54.747,20.221 C53.587,20.075 52.82,20.144 52.44,20.431 C52.079,20.709 51.967,21.157 52.104,21.737 C52.236,22.304 52.582,22.77 53.135,23.154 C53.682,23.527 54.427,23.788 55.382,23.903 C57.332,24.154 59.283,24.401 61.227,24.647 C63.173,24.894 65.118,25.145 67.059,25.387" fill="#EBECEC"/>
    <path d="M39.471,88.785 C39.672,87.387 40.133,86.1 40.85,84.885 C41.562,83.678 42.463,82.583 43.563,81.605 C44.663,80.628 45.947,79.782 47.412,79.048 C48.897,78.313 50.536,77.723 52.34,77.308 C54.506,76.81 56.552,76.513 58.492,76.426 C60.478,76.335 62.297,76.476 63.903,76.86 C65.561,77.253 66.982,77.933 68.147,78.879 C69.339,79.847 70.193,81.126 70.686,82.715 C71.047,83.894 71.055,85.176 70.691,86.57 C70.325,87.977 69.608,89.296 68.543,90.525 C66.631,92.794 64.702,95.078 62.785,97.366 C60.858,99.659 58.922,101.979 56.98,104.299 C60.013,104.033 63.146,103.756 66.384,103.472 C69.718,103.184 73.18,102.883 76.755,102.572 C77.746,105.773 78.784,109.121 79.861,112.61 C72.202,112.925 65.06,113.218 58.401,113.487 C52.162,113.738 46.294,113.98 40.8,114.209 C40.645,111.769 40.494,109.414 40.352,107.117 C42.969,104.002 45.582,100.896 48.176,97.822 C50.755,94.772 53.336,91.726 55.89,88.706 C56.149,88.4 56.405,87.957 56.637,87.401 C56.871,86.839 56.94,86.299 56.843,85.806 C56.532,84.218 55.387,83.633 53.436,84.012 C52.642,84.168 52.002,84.559 51.509,85.186 C51.011,85.816 50.715,86.839 50.633,88.26 C48.659,88.355 46.727,88.452 44.85,88.537 C43.015,88.624 41.221,88.706 39.471,88.785" fill="#EBECEC"/>
    <path d="M26.952,105.541 C24.98,105.431 23.049,105.327 21.167,105.22 C19.326,105.12 17.518,105.016 15.75,104.919 C18.203,99.303 20.669,93.644 23.144,87.949 C25.638,82.217 28.154,76.454 30.689,70.664 C28.734,70.923 26.816,71.184 24.953,71.443 C24.889,73.248 24.829,75.065 24.769,76.892 C23.044,77.079 21.349,77.263 19.686,77.435 C18.066,77.604 16.463,77.778 14.901,77.947 C15.011,75.722 15.125,73.512 15.235,71.331 C15.34,69.16 15.457,67.005 15.567,64.868 C19.691,64.105 24.048,63.31 28.615,62.469 C33.424,61.588 38.512,60.657 43.877,59.671 C43.877,62.457 43.882,65.26 43.887,68.097 C41.005,74.45 38.146,80.765 35.314,87.031 C32.511,93.237 29.72,99.42 26.952,105.541" fill="#EBECEC"/>
  </g>
  <defs/>
</svg>
