<?xml version="1.0" encoding="UTF-8"?>
<!DOCTYPE svg PUBLIC "-//W3C//DTD SVG 1.1//EN" "http://www.w3.org/Graphics/SVG/1.1/DTD/svg11.dtd">
<svg version="1.1" xmlns="http://www.w3.org/2000/svg" xmlns:xlink="http://www.w3.org/1999/xlink" x="0px" y="0px" width="1200" height="300" viewBox="0, 0, 1200, 300">
  <g id="Background">
    <rect x="0" y="0" width="1200" height="300" fill="#000000" fill-opacity="0"/>
  </g>
  <g id="Layer 1">
    <text transform="matrix(1, 0, 0, 1, 612, 42)">
      <tspan x="-540" y="6" font-family="Verdana-Bold" font-size="36" fill="#294270">checkio([1, 2, 3, 1, 3]) == [1, 3, 1, 3]</tspan>
    </text>
    <text transform="matrix(1, 0, 0, 1, 612, 114)">
      <tspan x="-540" y="6" font-family="Verdana-Bold" font-size="36" fill="#294270">checkio([1, 2, 3, 4, 5]) == []</tspan>
    </text>
    <text transform="matrix(1, 0, 0, 1, 612, 200.5)">
      <tspan x="-540" y="-8.5" font-family="Verdana-Bold" font-size="36" fill="#294270">checkio([5, 5, 5, 5, 5]) == [5, 5, 5, 5, 5]</tspan>
    </text>
    <text transform="matrix(1, 0, 0, 1, 612, 272.5)">
      <tspan x="-540" y="-8.5" font-family="Verdana-Bold" font-size="36" fill="#294270">checkio([10, 9, 10, 10, 9, 8]) == [10, 9, 10, 10, 9]</tspan>
    </text>
    <path d="M312.5,60.5 L348.5,12.5" fill-opacity="0" stroke="#F0801A" stroke-width="6" stroke-linecap="round"/>
    <path d="M258.5,132.5 L294.5,84.5" fill-opacity="0" stroke="#F0801A" stroke-width="6" stroke-linecap="round"/>
    <path d="M588.5,276.5 L624.5,228.5" fill-opacity="0" stroke="#F0801A" stroke-width="6" stroke-linecap="round"/>
    <path d="M464.5,132.5 L500.5,84.5" fill-opacity="0" stroke="#F0801A" stroke-width="6" stroke-linecap="round"/>
    <path d="M414.5,132.5 L450.5,84.5" fill-opacity="0" stroke="#F0801A" stroke-width="6" stroke-linecap="round"/>
    <path d="M360.5,132.5 L396.5,84.5" fill-opacity="0" stroke="#F0801A" stroke-width="6" stroke-linecap="round"/>
    <path d="M312.5,132.5 L348.5,84.5" fill-opacity="0" stroke="#F0801A" stroke-width="6" stroke-linecap="round"/>
  </g>
  <defs/>
</svg>
